<svg width="48" height="48" viewBox="0 0 48 48" fill="none" xmlns="http://www.w3.org/2000/svg">
  <!-- Open Book - Left Page -->
  <path d="M6 14C6 11.7909 7.79086 10 10 10H22C23.1046 10 24 10.8954 24 12V36C24 37.1046 23.1046 38 22 38H10C7.79086 38 6 36.2091 6 34V14Z" fill="url(#leftPage)"/>
  
  <!-- Open Book - Right Page -->
  <path d="M24 12C24 10.8954 24.8954 10 26 10H38C40.2091 10 42 11.7909 42 14V34C42 36.2091 40.2091 38 38 38H26C24.8954 38 24 37.1046 24 36V12Z" fill="url(#rightPage)"/>
  
  <!-- Center Spine -->
  <rect x="23" y="10" width="2" height="28" fill="#B8941F"/>
  
  <!-- Page Lines - Left -->
  <line x1="10" y1="16" x2="20" y2="16" stroke="#E8C547" stroke-width="0.8" opacity="0.6"/>
  <line x1="10" y1="20" x2="20" y2="20" stroke="#E8C547" stroke-width="0.8" opacity="0.5"/>
  <line x1="10" y1="24" x2="18" y2="24" stroke="#E8C547" stroke-width="0.8" opacity="0.5"/>
  <line x1="10" y1="28" x2="20" y2="28" stroke="#E8C547" stroke-width="0.8" opacity="0.4"/>
  
  <!-- Page Lines - Right -->
  <line x1="28" y1="16" x2="38" y2="16" stroke="#E8C547" stroke-width="0.8" opacity="0.6"/>
  <line x1="28" y1="20" x2="38" y2="20" stroke="#E8C547" stroke-width="0.8" opacity="0.5"/>
  <line x1="30" y1="24" x2="38" y2="24" stroke="#E8C547" stroke-width="0.8" opacity="0.5"/>
  <line x1="28" y1="28" x2="38" y2="28" stroke="#E8C547" stroke-width="0.8" opacity="0.4"/>
  
  <!-- Decorative Star -->
  <path d="M24 7L24.5 8.5L26 9L24.5 9.5L24 11L23.5 9.5L22 9L23.5 8.5L24 7Z" fill="#E8C547"/>
  
  <defs>
    <linearGradient id="leftPage" x1="6" y1="24" x2="24" y2="24" gradientUnits="userSpaceOnUse">
      <stop offset="0%" stop-color="#C9A962"/>
      <stop offset="100%" stop-color="#D4AF37"/>
    </linearGradient>
    <linearGradient id="rightPage" x1="42" y1="24" x2="24" y2="24" gradientUnits="userSpaceOnUse">
      <stop offset="0%" stop-color="#C9A962"/>
      <stop offset="100%" stop-color="#D4AF37"/>
    </linearGradient>
  </defs>
</svg>
