<svg width="48" height="48" viewBox="0 0 48 48" fill="none" xmlns="http://www.w3.org/2000/svg">
  <!-- Book Base -->
  <path d="M10 12C10 10.3431 11.3431 9 13 9H35C36.6569 9 38 10.3431 38 12V36C38 37.6569 36.6569 39 35 39H13C11.3431 39 10 37.6569 10 36V12Z" fill="#1B1F3B"/>
  
  <!-- Golden Cover with Gradient -->
  <rect x="11" y="10" width="26" height="28" rx="2" fill="url(#coverGradient)"/>
  
  <!-- Ornate Border -->
  <rect x="13" y="12" width="22" height="24" rx="1" fill="none" stroke="#E8C547" stroke-width="0.8" opacity="0.6"/>
  <rect x="14.5" y="13.5" width="19" height="21" rx="0.5" fill="none" stroke="#D4AF37" stroke-width="0.5" opacity="0.4"/>
  
  <!-- Cover Star/Ornament -->
  <circle cx="24" cy="20" r="3" fill="none" stroke="#E8C547" stroke-width="0.8"/>
  <path d="M24 18L24.4 19.6L26 20L24.4 20.4L24 22L23.6 20.4L22 20L23.6 19.6L24 18Z" fill="#E8C547"/>
  
  <!-- Title Lines (representing text) -->
  <line x1="17" y1="27" x2="31" y2="27" stroke="#D4AF37" stroke-width="1" stroke-linecap="round" opacity="0.7"/>
  <line x1="19" y1="30" x2="29" y2="30" stroke="#D4AF37" stroke-width="0.8" stroke-linecap="round" opacity="0.6"/>
  
  <!-- Book Spine -->
  <rect x="10" y="10" width="2" height="28" fill="#B8941F"/>
  
  <!-- Page Edges (side) -->
  <rect x="37" y="11" width="1" height="27" fill="#F5EDD6" opacity="0.8"/>
  
  <defs>
    <linearGradient id="coverGradient" x1="24" y1="10" x2="24" y2="38" gradientUnits="userSpaceOnUse">
      <stop offset="0%" stop-color="#D4AF37"/>
      <stop offset="100%" stop-color="#B8941F"/>
    </linearGradient>
  </defs>
</svg>
