<svg width="48" height="48" viewBox="0 0 48 48" fill="none" xmlns="http://www.w3.org/2000/svg">
  <!-- Golden Book -->
  <path d="M10 12C10 10.3431 11.3431 9 13 9H35C36.6569 9 38 10.3431 38 12V36C38 37.6569 36.6569 39 35 39H13C11.3431 39 10 37.6569 10 36V12Z" fill="#D4AF37"/>
  
  <!-- Book Spine Shadow -->
  <path d="M23 9H25V39H23V9Z" fill="#B8941F" opacity="0.5"/>
  
  <!-- Pages -->
  <path d="M14 14H22M14 18H22M14 22H22M14 26H22M14 30H22" stroke="#F5EDD6" stroke-width="1.5" stroke-linecap="round" opacity="0.7"/>
  <path d="M26 14H34M26 18H34M26 22H34M26 26H34M26 30H34" stroke="#F5EDD6" stroke-width="1.5" stroke-linecap="round" opacity="0.7"/>
  
  <!-- Decorative Corner Ornaments -->
  <circle cx="13" cy="12" r="1.5" fill="#E8C547"/>
  <circle cx="35" cy="12" r="1.5" fill="#E8C547"/>
  <circle cx="13" cy="36" r="1.5" fill="#E8C547"/>
  <circle cx="35" cy="36" r="1.5" fill="#E8C547"/>
</svg>
